<svg xmlns="http://www.w3.org/2000/svg" xmlns:xlink="http://www.w3.org/1999/xlink" viewBox="0 0 114.48 44">
  <defs>
    <style>
      .cls-1, .cls-2, .cls-6 {
        fill: none;
      }

      .cls-2, .cls-4, .cls-6 {
        stroke: #56cbe7;
        stroke-linejoin: round;
        stroke-width: 2px;
      }

      .cls-2, .cls-4 {
        stroke-linecap: round;
      }

      .cls-3, .cls-4 {
        fill: #fff;
      }

      .cls-5 {
        fill: #56cbe7;
      }

      .cls-7 {
        clip-path: url(#clip-path);
      }

      .cls-8 {
        fill: #d5f2f9;
      }
    </style>
    <clipPath id="clip-path">
      <path class="cls-1" d="M95.27,18H48.54a8.09,8.09,0,0,1-5.9-2.49l-12.1-13A4.34,4.34,0,0,0,27.59,1H22.25a1.24,1.24,0,0,0-1,1.85l6,15.15H21.72C20.9,18,20,19.22,20,20v1a1.77,1.77,0,0,0,1.18,1.54l21.28,8.15a19.48,19.48,0,0,0,7,1.23H100a13.27,13.27,0,0,0,5.52-1.13l4.82-2.16A2.68,2.68,0,0,0,112,26.25v0a3.34,3.34,0,0,0-1.25-2.62S100.79,18,95.27,18Z"/>
    </clipPath>
  </defs>
  <title>airplane</title>
  <g id="Layer_2" data-name="Layer 2">
    <g id="Isolation_Mode" data-name="Isolation Mode">
      <g>
        <g>
          <line class="cls-2" x1="14" y1="18" x2="1" y2="18"/>
          <line class="cls-2" x1="14" y1="22" x2="8" y2="22"/>
        </g>
        <path class="cls-3" d="M95.27,18H48.54a8.09,8.09,0,0,1-5.9-2.49l-12.1-13A4.34,4.34,0,0,0,27.59,1H22.25a1.24,1.24,0,0,0-1,1.85l6,15.15H21.72C20.9,18,20,19.22,20,20v1a1.77,1.77,0,0,0,1.18,1.54l21.28,8.15a19.48,19.48,0,0,0,7,1.23H100a13.27,13.27,0,0,0,5.52-1.13l4.82-2.16A2.68,2.68,0,0,0,112,26.25v0a3.34,3.34,0,0,0-1.25-2.62S100.79,18,95.27,18Z"/>
        <path class="cls-4" d="M60.75,18l-1-3.63A1.88,1.88,0,0,1,61.45,12h5.89a1.91,1.91,0,0,1,1.39.77L74.8,18Z"/>
        <g>
          <rect class="cls-5" x="48" y="21" width="3" height="4" rx="1.5" ry="1.5"/>
          <rect class="cls-5" x="55" y="21" width="3" height="4" rx="1.5" ry="1.5"/>
          <rect class="cls-5" x="62" y="21" width="3" height="4" rx="1.5" ry="1.5"/>
          <rect class="cls-5" x="69" y="21" width="3" height="4" rx="1.5" ry="1.5"/>
          <rect class="cls-5" x="76" y="21" width="3" height="4" rx="1.5" ry="1.5"/>
          <rect class="cls-5" x="83" y="21" width="3" height="4" rx="1.5" ry="1.5"/>
          <rect class="cls-5" x="90" y="21" width="3" height="4" rx="1.5" ry="1.5"/>
        </g>
        <path class="cls-4" d="M67,32H81a0,0,0,0,1,0,0v.57A4.43,4.43,0,0,1,76.57,37H67a0,0,0,0,1,0,0V32A0,0,0,0,1,67,32Z"/>
        <path class="cls-5" d="M106.44,22h-6.12c-.32,0-.48.55-.24.76l1.55.88a3.85,3.85,0,0,0,2.26.35h6.92Z"/>
        <g>
          <line class="cls-6" x1="27" y1="18" x2="49" y2="18"/>
          <g class="cls-7">
            <polygon class="cls-8" points="114.48 43 27 43 27 27 112.83 27 114.48 43"/>
          </g>
        </g>
        <path class="cls-2" d="M95.27,18H48.54a8.09,8.09,0,0,1-5.9-2.49l-12.1-13A4.34,4.34,0,0,0,27.59,1H22.25a1.24,1.24,0,0,0-1,1.85l6,15.15H21.72C20.9,18,20,19.22,20,20v1a1.77,1.77,0,0,0,1.18,1.54l21.28,8.15a19.48,19.48,0,0,0,7,1.23H100a13.27,13.27,0,0,0,5.52-1.13l4.82-2.16A2.68,2.68,0,0,0,112,26.25v0a3.34,3.34,0,0,0-1.25-2.62S100.79,18,95.27,18Z"/>
        <path class="cls-4" d="M62.4,28,60.2,41.37A1.39,1.39,0,0,0,61.52,43h5.92a1.4,1.4,0,0,0,1.15-.7L78.94,28Z"/>
        <path class="cls-4" d="M34.46,22h4.08c1,0,1.67,1.66,1.13,2.54l-5,8a1.16,1.16,0,0,1-1.08.47H29.67c-.93,0-1.54-.56-1.15-1.41L31.88,24A3.18,3.18,0,0,1,34.46,22Z"/>
        <line class="cls-2" x1="38" y1="28" x2="111" y2="28"/>
      </g>
    </g>
  </g>
</svg>