<svg xmlns="http://www.w3.org/2000/svg" viewBox="0 0 43 29.45"><defs><style>.cls-1{fill:#f1fcff;}.cls-1,.cls-2{stroke:#5ac8e4;stroke-linecap:round;stroke-linejoin:round;stroke-width:2px;}.cls-2{fill:none;}.cls-3{fill:#d5f2f9;}.cls-4{fill:#5ac8e4;}</style></defs><title>boat</title><g id="Layer_2" data-name="Layer 2"><g id="Layer_1-2" data-name="Layer 1"><g id="Layer_7" data-name="Layer 7"><g id="boat"><polygon id="_Path_" data-name="&lt;Path&gt;" class="cls-1" points="20.9 2.74 33.26 18.45 20.94 18.45 20.9 2.74"/><polygon id="_Path_2" data-name="&lt;Path&gt;" class="cls-1" points="19.21 2.91 14.68 10.68 10.15 18.45 19.17 18.45 19.21 2.91"/><line id="_Path_3" data-name="&lt;Path&gt;" class="cls-2" x1="1" y1="28.45" x2="42" y2="28.45"/><path class="cls-3" d="M20,24a2,2,0,0,1-2-1.75V2.75a2,2,0,0,1,4,0V22.2A2,2,0,0,1,20,24Z"/><path class="cls-4" d="M20,2c.41,0,1,.34,1,.75V22.2c0,.41-.59.75-1,.75s-1-.34-1-.75V2.75c0-.41.59-.75,1-.75m0-2a3,3,0,0,0-3,2.75V22.2a3,3,0,0,0,6,0V2.75A3,3,0,0,0,20,0Z"/><path class="cls-1" d="M35.23,22.45H7.28c0,1,1.27,4,3.35,6H31.88C34,26.45,35.23,23.45,35.23,22.45Z"/></g></g></g></g></svg>